<svg width="18" height="18" viewBox="0 0 18 18" fill="none" xmlns="http://www.w3.org/2000/svg">
<path fill-rule="evenodd" clip-rule="evenodd" d="M1.6755 3.26775C1.56211 3.40286 1.49997 3.57361 1.5 3.75V12.75C1.5 13.3467 1.73705 13.919 2.15901 14.341C2.58097 14.7629 3.15326 15 3.75 15H14.25C14.8467 15 15.419 14.7629 15.841 14.341C16.2629 13.919 16.5 13.3467 16.5 12.75V3.7575C16.501 3.64569 16.4771 3.53506 16.4298 3.43371C16.3826 3.33236 16.3133 3.24286 16.227 3.17175C16.0936 3.06152 15.9261 3.00084 15.753 3H2.25C2.1405 2.99999 2.03233 3.02395 1.93308 3.0702C1.83383 3.11646 1.74591 3.18389 1.6755 3.26775ZM3 5.5605V12.75C3 12.9489 3.07902 13.1397 3.21967 13.2803C3.36032 13.421 3.55109 13.5 3.75 13.5H14.25C14.4489 13.5 14.6397 13.421 14.7803 13.2803C14.921 13.1397 15 12.9489 15 12.75V5.5605L9.53025 11.0302C9.3896 11.1709 9.19887 11.2498 9 11.2498C8.80113 11.2498 8.6104 11.1709 8.46975 11.0302L3 5.5605Z" fill="#E6E0D7"/>
</svg>
