<svg width="64" height="64" viewBox="0 0 64 64" fill="none" xmlns="http://www.w3.org/2000/svg">
<g clip-path="url(#clip0_48_24)">
<path d="M49.4167 53.875H44.6667V42.7969C44.6611 41.1776 44.2733 39.5819 43.534 38.1363C42.7947 36.6907 41.7242 35.435 40.4075 34.4688L38.3808 32.9062C37.8667 32.5552 37.3208 32.2518 36.75 32C37.3072 31.7265 37.8373 31.4022 38.3333 31.0312L40.36 29.4687C41.677 28.5138 42.7514 27.2702 43.4987 25.8359C44.246 24.4016 44.6458 22.8158 44.6667 21.2031V10.125H49.4167C49.8366 10.125 50.2393 9.96038 50.5363 9.66735C50.8332 9.37433 51 8.9769 51 8.5625C51 8.1481 50.8332 7.75067 50.5363 7.45765C50.2393 7.16462 49.8366 7 49.4167 7H14.5833C14.1634 7 13.7607 7.16462 13.4637 7.45765C13.1668 7.75067 13 8.1481 13 8.5625C13 8.9769 13.1668 9.37433 13.4637 9.66735C13.7607 9.96038 14.1634 10.125 14.5833 10.125H19.3333V21.2031C19.3389 22.8224 19.7267 24.4181 20.466 25.8637C21.2053 27.3093 22.2758 28.565 23.5925 29.5312L25.6192 31.0938C26.1333 31.4448 26.6792 31.7482 27.25 32C26.6928 32.2735 26.1627 32.5978 25.6667 32.9688L23.64 34.5313C22.323 35.4862 21.2486 36.7298 20.5013 38.1641C19.754 39.5984 19.3542 41.1842 19.3333 42.7969V53.875H14.5833C14.1634 53.875 13.7607 54.0396 13.4637 54.3326C13.1668 54.6257 13 55.0231 13 55.4375C13 55.8519 13.1668 56.2493 13.4637 56.5424C13.7607 56.8354 14.1634 57 14.5833 57H49.4167C49.8366 57 50.2393 56.8354 50.5363 56.5424C50.8332 56.2493 51 55.8519 51 55.4375C51 55.0231 50.8332 54.6257 50.5363 54.3326C50.2393 54.0396 49.8366 53.875 49.4167 53.875ZM22.5 42.7969C22.5049 41.6665 22.7764 40.5528 23.2931 39.5439C23.8098 38.535 24.5574 37.6587 25.4767 36.9844L27.5033 35.4219C28.0754 35.0075 28.7045 34.676 29.3717 34.4375C29.6747 34.3258 29.9358 34.1251 30.1198 33.8625C30.3038 33.5999 30.4019 33.288 30.4008 32.9688V30.9531C30.4019 30.6339 30.3038 30.322 30.1198 30.0594C29.9358 29.7968 29.6747 29.5961 29.3717 29.4844C28.699 29.2472 28.0644 28.9157 27.4875 28.5L25.4608 26.9375C24.555 26.2695 23.8169 25.405 23.3036 24.4107C22.7902 23.4164 22.5152 22.3189 22.5 21.2031V10.125H41.5V21.2031C41.4951 22.3335 41.2236 23.4472 40.7069 24.4561C40.1902 25.465 39.4426 26.3413 38.5233 27.0156L36.4967 28.5781C35.9246 28.9925 35.2955 29.324 34.6283 29.5625C34.3253 29.6742 34.0642 29.8749 33.8802 30.1375C33.6962 30.4001 33.5981 30.712 33.5992 31.0312V33.125C33.5981 33.4443 33.6962 33.7562 33.8802 34.0188C34.0642 34.2813 34.3253 34.482 34.6283 34.5938C35.301 34.8309 35.9356 35.1625 36.5125 35.5781L38.5392 37.1406C39.4345 37.8006 40.1663 38.6527 40.6792 39.6325C41.1921 40.6123 41.4728 41.6943 41.5 42.7969V53.875H22.5V42.7969Z" fill="#996948"/>
</g>
<defs>
<clipPath id="clip0_48_24">
<rect width="64" height="64" fill="white"/>
</clipPath>
</defs>
</svg>
