<svg width="64" height="64" viewBox="0 0 64 64" fill="none" xmlns="http://www.w3.org/2000/svg">
<path d="M51.1999 22.3999C51.1999 23.4964 51.0932 24.5631 50.8799 25.5999H53.3279C55.6863 25.5999 57.5999 27.5135 57.5999 29.8719V41.5999C57.6002 44.6281 56.7411 47.5941 55.1225 50.1534C53.5039 52.7127 51.1923 54.7601 48.4563 56.0578C45.7203 57.3554 42.6722 57.85 39.6662 57.484C36.6602 57.118 33.8199 55.9065 31.4751 53.9903L28.3327 57.1327C28.0323 57.4327 27.625 57.6011 27.2004 57.6008C26.7758 57.6005 26.3687 57.4315 26.0687 57.1311C25.7687 56.8307 25.6003 56.4234 25.6006 55.9988C25.6009 55.5742 25.7699 55.1671 26.0703 54.8671L29.2127 51.7247C28.152 50.4297 27.3012 48.9763 26.6911 47.4175C24.3138 48.0793 21.8157 48.1823 19.3921 47.7184C16.9684 47.2545 14.6849 46.2363 12.72 44.7434C10.7552 43.2505 9.16233 41.3233 8.06592 39.1126C6.96952 36.9019 6.39932 34.4676 6.3999 31.9999V20.2719C6.39948 19.711 6.50959 19.1556 6.72393 18.6373C6.93827 18.119 7.25264 17.6481 7.64907 17.2513C8.04551 16.8546 8.51624 16.5399 9.03436 16.3252C9.55249 16.1104 10.1078 15.9999 10.6687 15.9999H20.5279C21.7737 13.1454 23.8256 10.7165 26.4318 9.01122C29.0381 7.30594 32.0853 6.39839 35.1999 6.3999H46.9279C49.2863 6.3999 51.1999 8.3135 51.1999 10.6719V22.3999ZM24.0639 16.0863C26.9862 16.3905 29.7684 17.4936 32.1053 19.2745C34.4421 21.0553 36.2435 23.4453 37.3119 26.1823C38.7083 25.7949 40.1508 25.599 41.5999 25.5999H47.5967C47.8634 24.5738 47.9978 23.5071 47.9999 22.3999V10.6719C47.9999 10.5311 47.9722 10.3917 47.9183 10.2617C47.8644 10.1316 47.7855 10.0134 47.6859 9.91389C47.5864 9.81434 47.4682 9.73538 47.3381 9.68151C47.2081 9.62763 47.0687 9.5999 46.9279 9.5999H35.1999C32.9359 9.59965 30.7124 10.1999 28.756 11.3394C26.7997 12.4789 25.1806 14.1169 24.0639 16.0863ZM33.7503 51.7119C35.6424 53.1809 37.9087 54.0894 40.2915 54.3343C42.6743 54.5791 45.078 54.1505 47.2293 53.097C49.3805 52.0435 51.193 50.4075 52.4607 48.3751C53.7283 46.3426 54.4002 43.9953 54.3999 41.5999V29.8719C54.3999 29.5876 54.287 29.3149 54.0859 29.1139C53.8849 28.9128 53.6122 28.7999 53.3279 28.7999H41.5999C39.2045 28.7996 36.8572 29.4715 34.8247 30.7391C32.7923 32.0068 31.1563 33.8193 30.1028 35.9705C29.0494 38.1218 28.6207 40.5255 28.8655 42.9083C29.1104 45.2911 30.0189 47.5574 31.4879 49.4495L42.0703 38.8671C42.3707 38.5671 42.7781 38.3987 43.2026 38.399C43.6272 38.3993 44.0343 38.5683 44.3343 38.8687C44.6343 39.1691 44.8027 39.5765 44.8024 40.001C44.8021 40.4256 44.6331 40.8327 44.3327 41.1327L33.7503 51.7119ZM25.5999 41.5999C25.6042 40.3199 25.7482 39.0847 26.0319 37.8943L18.0671 29.9327C17.9183 29.7839 17.8003 29.6073 17.7198 29.413C17.6393 29.2186 17.5979 29.0103 17.5979 28.7999C17.5979 28.5895 17.6393 28.3812 17.7198 28.1868C17.8003 27.9925 17.9183 27.8159 18.0671 27.6671C18.3675 27.3667 18.775 27.1979 19.1999 27.1979C19.4103 27.1979 19.6186 27.2393 19.813 27.3198C20.0073 27.4003 20.1839 27.5183 20.3327 27.6671L27.2255 34.5631C28.7531 31.4536 31.245 28.9213 34.3295 27.3439C33.392 24.9432 31.7517 22.8815 29.6232 21.4284C27.4947 19.9753 24.9771 19.1986 22.3999 19.1999H10.6719C10.3876 19.1999 10.1149 19.3128 9.91389 19.5139C9.71285 19.7149 9.5999 19.9876 9.5999 20.2719V31.9999C9.59911 33.9743 10.0551 35.922 10.9321 37.6909C11.8091 39.4598 13.0835 41.0018 14.6554 42.1964C16.2274 43.3909 18.0544 44.2057 19.9936 44.5768C21.9328 44.948 23.9315 44.8655 25.8335 44.3359C25.6774 43.4323 25.5992 42.5169 25.5999 41.5999Z" fill="#996948"/>
</svg>
