<svg width="64" height="64" viewBox="0 0 64 64" fill="none" xmlns="http://www.w3.org/2000/svg">
<path d="M41.143 19.8097V15.2383C41.143 14.43 40.8219 13.6549 40.2503 13.0833C39.6788 12.5118 38.9036 12.1907 38.0953 12.1907C37.2871 12.1907 36.5119 12.5118 35.9404 13.0833C35.3688 13.6549 35.0477 14.43 35.0477 15.2383V12.1907C35.0477 11.3824 34.7266 10.6072 34.1551 10.0357C33.5836 9.46415 32.8084 9.14307 32.0001 9.14307C31.1918 9.14307 30.4167 9.46415 29.8451 10.0357C29.2736 10.6072 28.9525 11.3824 28.9525 12.1907V16.7621C28.9525 15.9538 28.6314 15.1787 28.0599 14.6071C27.4883 14.0356 26.7131 13.7145 25.9049 13.7145C25.0966 13.7145 24.3214 14.0356 23.7499 14.6071C23.1783 15.1787 22.8573 15.9538 22.8573 16.7621V35.0478L21.2512 31.0372C20.8474 30.0232 20.1007 29.1829 19.1412 28.6628C18.1817 28.1426 17.0701 27.9756 16.0001 28.1907C15.5529 28.2804 15.1323 28.4719 14.7711 28.7504C14.4098 29.0289 14.1177 29.387 13.9172 29.7967C13.7168 30.2065 13.6134 30.6569 13.6153 31.113C13.6171 31.5692 13.724 32.0188 13.9277 32.4269L19.8096 44.1907L19.9011 44.5564C21.6382 51.505 27.8858 56.3812 35.0477 56.3812C38.2808 56.3812 41.3815 55.0968 43.6677 52.8107C45.9539 50.5245 47.2382 47.4238 47.2382 44.1907V19.8097C47.2382 19.0015 46.9171 18.2263 46.3456 17.6547C45.774 17.0832 44.9989 16.7621 44.1906 16.7621C43.3823 16.7621 42.6071 17.0832 42.0356 17.6547C41.4641 18.2263 41.143 19.0015 41.143 19.8097ZM41.143 19.8097V32.0002M28.9525 13.7145V32.0002M35.0477 13.7145V28.9526" stroke="#996948" stroke-width="3" stroke-linecap="round" stroke-linejoin="round"/>
</svg>
