<svg width="64" height="64" viewBox="0 0 64 64" fill="none" xmlns="http://www.w3.org/2000/svg">
<path d="M32.0002 58.6668V37.3335M32.0002 37.3335V26.6668M32.0002 37.3335L42.6668 32.0002M45.3335 18.6668C45.3335 15.1306 43.9287 11.7392 41.4283 9.23874C38.9278 6.73825 35.5364 5.3335 32.0002 5.3335C28.4639 5.3335 25.0726 6.73825 22.5721 9.23874C20.0716 11.7392 18.6668 15.1306 18.6668 18.6668M24.0002 18.6668H20.0002C16.1103 18.6668 12.3798 20.2121 9.62926 22.9626C6.87873 25.7131 5.3335 29.4437 5.3335 33.3335C5.3335 37.2233 6.87873 40.9539 9.62926 43.7044C12.3798 46.4549 16.1103 48.0002 20.0002 48.0002H32.0002H44.0002C47.7785 48.0061 51.4133 46.5537 54.1471 43.9457C56.8809 41.3376 58.5028 37.7752 58.6747 34.0008C58.8466 30.2264 57.5553 26.5313 55.0698 23.6856C52.5844 20.8398 49.0967 19.063 45.3335 18.7255" stroke="#996948" stroke-width="3" stroke-linecap="round" stroke-linejoin="round"/>
</svg>
