<svg width="17" height="22" viewBox="0 0 17 22" fill="none" xmlns="http://www.w3.org/2000/svg">
<path d="M8.41 1C6.44475 1 4.55998 1.78069 3.17034 3.17034C1.78069 4.55998 1 6.44475 1 8.41V8.95C1.3 13.01 4.67 16.275 8.41 20.5C12.315 16.09 15.82 12.75 15.82 8.41C15.82 6.44475 15.0393 4.55998 13.6497 3.17034C12.26 1.78069 10.3753 1 8.41 1ZM8.41 4.85C9.1153 4.85 9.80476 5.05921 10.3911 5.45116C10.9775 5.84311 11.4344 6.40018 11.7041 7.05189C11.9738 7.7036 12.0441 8.42066 11.9061 9.11234C11.7682 9.80402 11.4281 10.4392 10.9291 10.9376C10.43 11.436 9.7943 11.7751 9.10243 11.9121C8.41056 12.0491 7.6936 11.9778 7.04226 11.7072C6.39093 11.4366 5.8345 10.9789 5.44338 10.392C5.05225 9.80505 4.84401 9.1153 4.845 8.41C4.84633 7.46537 5.22251 6.55988 5.89093 5.8924C6.55935 5.22491 7.46537 4.85 8.41 4.85Z" stroke="#996948" stroke-width="2" stroke-linecap="round" stroke-linejoin="round"/>
</svg>
