<svg width="38" height="50" viewBox="0 0 38 50" fill="none" xmlns="http://www.w3.org/2000/svg">
<path d="M36.4167 46.875H31.6667V35.7969C31.6611 34.1776 31.2733 32.5819 30.534 31.1363C29.7947 29.6907 28.7242 28.435 27.4075 27.4688L25.3808 25.9062C24.8667 25.5552 24.3208 25.2518 23.75 25C24.3072 24.7265 24.8373 24.4022 25.3333 24.0312L27.36 22.4687C28.677 21.5138 29.7514 20.2702 30.4987 18.8359C31.246 17.4016 31.6458 15.8158 31.6667 14.2031V3.125H36.4167C36.8366 3.125 37.2393 2.96038 37.5363 2.66735C37.8332 2.37433 38 1.9769 38 1.5625C38 1.1481 37.8332 0.750671 37.5363 0.457646C37.2393 0.16462 36.8366 0 36.4167 0H1.58333C1.16341 0 0.76068 0.16462 0.463748 0.457646C0.166815 0.750671 0 1.1481 0 1.5625C0 1.9769 0.166815 2.37433 0.463748 2.66735C0.76068 2.96038 1.16341 3.125 1.58333 3.125H6.33333V14.2031C6.33886 15.8224 6.72666 17.4181 7.46597 18.8637C8.20528 20.3093 9.27576 21.565 10.5925 22.5312L12.6192 24.0938C13.1333 24.4448 13.6792 24.7482 14.25 25C13.6928 25.2735 13.1627 25.5978 12.6667 25.9688L10.64 27.5313C9.32302 28.4862 8.24859 29.7298 7.50128 31.1641C6.75396 32.5984 6.35416 34.1842 6.33333 35.7969V46.875H1.58333C1.16341 46.875 0.76068 47.0396 0.463748 47.3326C0.166815 47.6257 0 48.0231 0 48.4375C0 48.8519 0.166815 49.2493 0.463748 49.5424C0.76068 49.8354 1.16341 50 1.58333 50H36.4167C36.8366 50 37.2393 49.8354 37.5363 49.5424C37.8332 49.2493 38 48.8519 38 48.4375C38 48.0231 37.8332 47.6257 37.5363 47.3326C37.2393 47.0396 36.8366 46.875 36.4167 46.875ZM9.5 35.7969C9.50491 34.6665 9.77645 33.5528 10.2931 32.5439C10.8098 31.535 11.5574 30.6587 12.4767 29.9844L14.5033 28.4219C15.0754 28.0075 15.7045 27.676 16.3717 27.4375C16.6747 27.3258 16.9358 27.1251 17.1198 26.8625C17.3038 26.5999 17.4019 26.288 17.4008 25.9688V23.9531C17.4019 23.6339 17.3038 23.322 17.1198 23.0594C16.9358 22.7968 16.6747 22.5961 16.3717 22.4844C15.699 22.2472 15.0644 21.9157 14.4875 21.5L12.4608 19.9375C11.555 19.2695 10.8169 18.405 10.3036 17.4107C9.79017 16.4164 9.51524 15.3189 9.5 14.2031V3.125H28.5V14.2031C28.4951 15.3335 28.2236 16.4472 27.7069 17.4561C27.1902 18.465 26.4426 19.3413 25.5233 20.0156L23.4967 21.5781C22.9246 21.9925 22.2955 22.324 21.6283 22.5625C21.3253 22.6742 21.0642 22.8749 20.8802 23.1375C20.6962 23.4001 20.5981 23.712 20.5992 24.0312V26.125C20.5981 26.4443 20.6962 26.7562 20.8802 27.0188C21.0642 27.2813 21.3253 27.482 21.6283 27.5938C22.301 27.8309 22.9356 28.1625 23.5125 28.5781L25.5392 30.1406C26.4345 30.8006 27.1663 31.6527 27.6792 32.6325C28.1921 33.6123 28.4728 34.6943 28.5 35.7969V46.875H9.5V35.7969Z" fill="#996948"/>
</svg>
