<svg width="64" height="64" viewBox="0 0 64 64" fill="none" xmlns="http://www.w3.org/2000/svg">
<path fill-rule="evenodd" clip-rule="evenodd" d="M19.9052 21.6522C17.1789 21.6522 14.5643 22.7424 12.6365 24.683C10.7087 26.6236 9.62566 29.2556 9.62566 32C9.62566 34.7444 10.7087 37.3764 12.6365 39.317C14.5643 41.2576 17.1789 42.3478 19.9052 42.3478C21.3492 42.3478 22.4328 42.0873 23.3083 41.6563C24.1839 41.2278 24.9506 40.5802 25.6932 39.6696C26.9993 38.0626 28.0708 35.8762 29.4833 32.9958C29.7655 32.4196 30.0638 31.8158 30.3783 31.1843L31.2006 29.5043C32.6059 26.6289 33.9023 23.9774 35.4987 22.0174C36.4903 20.7976 37.6513 19.7701 39.1026 19.0591C40.5538 18.3482 42.1961 18 44.0924 18C46.2961 18 48.4682 18.5271 50.4298 19.538C52.3914 20.5488 54.0863 22.0145 55.3748 23.8141C56.6633 25.6137 57.5086 27.6957 57.8409 29.8887C58.1733 32.0816 57.9832 34.3227 57.2863 36.4272C56.5894 38.5317 55.4058 40.4393 53.8328 41.993C52.2598 43.5466 50.3426 44.7018 48.2392 45.3632C46.1357 46.0246 43.9062 46.1734 41.7345 45.7973C39.5627 45.4212 37.5108 44.531 35.7478 43.2C35.3629 42.9094 35.1085 42.4768 35.0404 41.9974C34.9724 41.5179 35.0963 41.0309 35.385 40.6435C35.6737 40.256 36.1034 39.9999 36.5797 39.9314C37.056 39.8629 37.5398 39.9877 37.9246 40.2783C39.2277 41.262 40.7443 41.92 42.3496 42.198C43.9548 42.476 45.6027 42.366 47.1574 41.8771C48.7121 41.3883 50.1292 40.5345 51.2918 39.3861C52.4544 38.2378 53.3293 36.8278 53.8444 35.2723C54.3595 33.7168 54.5 32.0603 54.2544 30.4395C54.0087 28.8186 53.384 27.2797 52.4316 25.9495C51.4792 24.6194 50.2264 23.5361 48.7766 22.789C47.3267 22.0418 45.7212 21.6522 44.0924 21.6522C42.6484 21.6522 41.5648 21.9127 40.6892 22.3437C39.8137 22.7722 39.0469 23.4198 38.3044 24.3304C36.9983 25.9374 35.9268 28.1238 34.5143 31.0042C34.2321 31.5804 33.9338 32.1842 33.6193 32.8157L32.797 34.4957C31.3917 37.3711 30.0953 40.0226 28.4989 41.985C27.5072 43.2024 26.3462 44.2299 24.895 44.9409C23.4438 45.6518 21.7991 46 19.9052 46C17.7016 45.9996 15.5297 45.4721 13.5683 44.461C11.607 43.4499 9.91234 41.9841 8.62411 40.1845C7.33589 38.3848 6.49092 36.3027 6.15884 34.1098C5.82675 31.9169 6.01706 29.676 6.71408 27.5717C7.41109 25.4673 8.59487 23.5598 10.1679 22.0064C11.7408 20.4529 13.658 19.2979 15.7614 18.6366C17.8648 17.9753 20.0942 17.8266 22.2658 18.2027C24.4375 18.5789 26.4893 19.4691 28.2522 20.8C28.4428 20.944 28.6033 21.1245 28.7246 21.331C28.8459 21.5375 28.9256 21.766 28.9592 22.0035C28.9928 22.241 28.9796 22.4828 28.9203 22.7152C28.861 22.9476 28.7569 23.1659 28.6138 23.3577C28.4707 23.5496 28.2915 23.7112 28.0863 23.8333C27.8812 23.9554 27.6542 24.0357 27.4183 24.0695C27.1823 24.1033 26.9421 24.09 26.7112 24.0303C26.4804 23.9706 26.2635 23.8658 26.0729 23.7217C24.2952 22.3752 22.13 21.6486 19.9052 21.6522Z" fill="#996948"/>
</svg>
