<svg width="64" height="64" viewBox="0 0 64 64" fill="none" xmlns="http://www.w3.org/2000/svg">
<path fill-rule="evenodd" clip-rule="evenodd" d="M17.1721 14.4438C13.314 16.2257 10.4884 20.4665 10.4884 25.5229C10.4884 30.6875 12.5814 34.6697 15.5767 38.083C18.0488 40.8945 21.0395 43.2265 23.9558 45.4973C24.6504 46.038 25.3364 46.5771 26.014 47.1146C27.2372 48.0902 28.3279 48.9435 29.3814 49.5665C30.4349 50.1894 31.2791 50.4715 32 50.4715C32.7209 50.4715 33.5674 50.1894 34.6186 49.5665C35.6721 48.9435 36.7628 48.0902 37.986 47.1146C38.6636 46.5755 39.3496 46.0372 40.0442 45.4997C42.9605 43.2241 45.9512 40.8945 48.4233 38.083C51.4209 34.6697 53.5116 30.6875 53.5116 25.5229C53.5116 20.4688 50.686 16.2257 46.8279 14.4438C43.0791 12.7113 38.0419 13.1697 33.2558 18.198C33.0931 18.3686 32.898 18.5043 32.6823 18.597C32.4665 18.6897 32.2345 18.7375 32 18.7375C31.7655 18.7375 31.5335 18.6897 31.3177 18.597C31.102 18.5043 30.9069 18.3686 30.7442 18.198C25.9581 13.1697 20.9209 12.7113 17.1721 14.4438ZM32 14.5284C26.6233 9.66238 20.6023 8.98066 15.7209 11.235C10.5721 13.6211 7 19.15 7 25.5253C7 31.7901 9.58139 36.5715 12.9698 40.4267C15.6814 43.5133 19 46.0968 21.9326 48.377C22.5992 48.8942 23.2395 49.3972 23.8535 49.8862C25.0465 50.8359 26.3256 51.8467 27.6209 52.6131C28.9163 53.3794 30.3953 54 32 54C33.6047 54 35.0837 53.3771 36.3791 52.6131C37.6767 51.8467 38.9535 50.8359 40.1465 49.8862C40.7605 49.3972 41.4008 48.8942 42.0674 48.377C44.9977 46.0968 48.3186 43.5109 51.0302 40.4267C54.4186 36.5715 57 31.7901 57 25.5253C57 19.15 53.4302 13.6211 48.2791 11.2397C43.3977 8.98301 37.3767 9.66473 32 14.5284Z" fill="#996948"/>
</svg>
